<svg width="400" height="400" viewBox="0 0 400 400" fill="none" xmlns="http://www.w3.org/2000/svg">
<g clip-path="url(#clip0_77_29)">
<path d="M384.276 122.15C374.205 98.3349 359.789 76.9421 341.43 58.5767C323.057 40.2168 301.66 25.7945 277.855 15.7239C253.198 5.29314 227.001 0.000793457 200 0.000793457C173.004 0.000793457 146.808 5.29235 122.15 15.7239C98.3341 25.7945 76.9413 40.2176 58.5752 58.5767C40.216 76.9421 25.7937 98.3349 15.7223 122.15C5.29234 146.809 0 173.005 0 200C0 227.001 5.29156 253.198 15.7231 277.856C25.7937 301.66 40.2168 323.058 58.5759 341.418C76.9413 359.79 98.3341 374.206 122.15 384.276C146.809 394.701 173.004 399.999 200 399.999C227.002 399.999 253.199 394.701 277.856 384.276C301.66 374.205 323.058 359.789 341.43 341.418C359.79 323.058 374.205 301.66 384.277 277.856C394.702 253.198 400 227.001 400 200C399.999 173.005 394.701 146.809 384.276 122.15Z" fill="#ED5564" stroke="black" stroke-width="1.56255"/>
<path d="M0.079689 205.615C0.763303 230.627 6.01189 254.907 15.7231 277.856C25.7937 301.66 40.2168 323.058 58.5759 341.418C76.9413 359.79 98.3341 374.206 122.15 384.276C146.809 394.701 173.004 399.999 200 399.999C227.002 399.999 253.199 394.701 277.856 384.276C301.66 374.205 323.058 359.789 341.43 341.418C359.79 323.058 374.205 301.66 384.277 277.856C393.994 254.907 399.243 230.627 399.927 205.615H0.079689Z" fill="#E6E9ED" stroke="black" stroke-width="1.56255"/>
<path d="M399.047 219.703C399.681 213.184 399.999 206.616 399.999 200C399.999 192.566 399.596 185.193 398.803 177.899C388.866 179.431 374.596 181.427 356.616 183.41C322.484 187.176 267.626 191.668 200 191.668C132.379 191.668 77.5148 187.176 43.3896 183.41C25.4031 181.426 11.1386 179.431 1.20238 177.899C0.403137 185.193 0 192.567 0 200C0 206.616 0.317197 213.184 0.952372 219.703C33.3986 224.585 104.883 233.325 200 233.325C295.116 233.325 366.6 224.585 399.047 219.703Z" fill="#434A54" stroke="black" stroke-width="1.56255"/>
<path d="M241.674 208.331C241.674 231.347 223.009 250 200 250C176.99 250 158.331 231.347 158.331 208.331C158.331 185.32 176.99 166.668 200 166.668C223.009 166.669 241.674 185.321 241.674 208.331Z" fill="#E6E9ED" stroke="black" stroke-width="1.56255"/>
<path d="M200 133.332C158.642 133.332 125 166.981 125 208.332C125 249.683 158.643 283.325 200 283.325C241.356 283.325 274.999 249.682 274.999 208.332C274.999 166.981 241.357 133.332 200 133.332ZM200 241.675C181.623 241.675 166.668 226.709 166.668 208.332C166.668 189.954 181.622 175 200 175C218.384 175 233.324 189.954 233.324 208.332C233.324 226.708 218.384 241.675 200 241.675Z" fill="#434A54" stroke="black" stroke-width="1.56255"/>
<path opacity="0.2" d="M384.276 122.15C374.205 98.3349 359.789 76.9421 341.43 58.5767C323.057 40.2168 301.66 25.7945 277.855 15.7239C253.198 5.29314 227.001 0.000793457 200 0.000793457C197.21 0.000793457 194.433 0.0617327 191.668 0.171892C215.723 1.14848 239.062 6.36739 261.181 15.7239C285.008 25.7945 306.396 40.2176 324.754 58.5767C343.114 76.9421 357.543 98.3349 367.612 122.15C378.049 146.809 383.323 173.005 383.323 200.001C383.323 227.002 378.049 253.199 367.612 277.857C357.543 301.661 343.114 323.059 324.754 341.419C306.396 359.791 285.008 374.206 261.181 384.277C239.062 393.628 215.722 398.852 191.668 399.829C194.433 399.939 197.21 400 200 400C227.001 400 253.198 394.702 277.855 384.277C301.66 374.205 323.057 359.79 341.43 341.419C359.789 323.059 374.205 301.66 384.276 277.857C394.701 253.199 399.999 227.002 399.999 200.001C399.999 173.005 394.701 146.809 384.276 122.15Z" fill="white" stroke="black" stroke-width="1.56255"/>
<path opacity="0.1" d="M15.7231 277.856C25.7937 301.66 40.2168 323.058 58.5759 341.418C76.9413 359.79 98.3341 374.206 122.15 384.276C146.809 394.701 173.004 399.999 200 399.999C202.79 399.999 205.567 399.938 208.332 399.828C184.277 398.852 160.932 393.626 138.813 384.276C114.997 374.205 93.6106 359.789 75.2452 341.418C56.8798 323.058 42.463 301.66 32.3861 277.856C21.9545 253.199 16.6692 227.002 16.6692 200C16.6692 173.004 21.9545 146.808 32.3853 122.15C42.4622 98.3341 56.879 76.9405 75.2444 58.5822C93.6098 40.2168 114.996 25.7937 138.812 15.7231C160.931 6.36661 184.276 1.1477 208.331 0.171111C205.566 0.0617327 202.789 0.000793457 200 0.000793457C173.004 0.000793457 146.808 5.29235 122.15 15.7239C98.3341 25.7945 76.9413 40.2176 58.5752 58.583C40.216 76.9421 25.7937 98.3349 15.7223 122.15C5.29234 146.809 0 173.005 0 200C0 227.001 5.29234 253.199 15.7231 277.856Z" fill="black" stroke="black" stroke-width="1.56255"/>
</g>
<defs>
<clipPath id="clip0_77_29">
<rect width="400" height="400" fill="white"/>
</clipPath>
</defs>
</svg>
