<svg width="25" height="25" viewBox="0 0 25 25" fill="none" xmlns="http://www.w3.org/2000/svg">
<path d="M12.4979 16.0284C10.8013 16.0284 9.38602 14.8249 9.05006 13.2259H3.40585C3.8048 17.8758 7.6978 21.5241 12.4391 21.5241C17.1804 21.5241 21.0776 17.8758 21.4724 13.2259H15.9457C15.6098 14.8291 14.1945 16.0284 12.4979 16.0284Z" fill="white"/>
<path d="M14.5137 21.2885C18.2765 20.4048 21.1364 17.1772 21.4724 13.2259H19.2466C19.024 16.8111 17.1468 19.8493 14.5137 21.2885Z" fill="#DFDFDF"/>
<path d="M14.5767 12.4979C14.5725 12.4979 14.5725 12.4979 14.5767 12.4979C14.5725 12.2412 14.5263 11.9971 14.4423 11.7699C14.1483 10.9788 13.3882 10.4191 12.4979 10.4191C11.6076 10.4191 10.8475 10.983 10.5535 11.7699C10.4695 11.9971 10.4233 12.2412 10.4233 12.4979H10.4275C10.4275 12.7546 10.4737 12.9986 10.5577 13.2259C10.8517 14.017 11.6118 14.5766 12.5021 14.5766C13.3924 14.5766 14.1525 14.0128 14.4465 13.2259C14.5305 13.0028 14.5767 12.7546 14.5767 12.4979Z" fill="white"/>
<path d="M12.5021 8.97153C14.1987 8.97153 15.614 10.175 15.9499 11.7741H21.5942C21.1952 7.11999 17.3022 3.47162 12.5567 3.47162C7.81119 3.47162 3.92239 7.11999 3.52343 11.7699H9.05426C9.39022 10.1708 10.8055 8.97153 12.5021 8.97153Z" fill="#FF1C1C"/>
<path d="M19.2466 11.7699H21.59C21.2456 7.7512 18.2891 4.47734 14.4297 3.66519C17.109 5.0833 19.0198 8.15097 19.2466 11.7699Z" fill="#DF1818"/>
<path d="M12.5567 3.47163C17.3022 3.47163 21.1952 7.12001 21.59 11.7699H15.9457C15.6098 10.1708 14.1945 8.96734 12.4979 8.96734C10.8013 8.96734 9.38602 10.1708 9.05006 11.7699H3.52343C3.92239 7.12001 7.81539 3.47163 12.5567 3.47163ZM14.4423 11.7699C14.5263 11.9971 14.5725 12.2412 14.5725 12.4979H14.5767C14.5767 12.7546 14.5305 12.9986 14.4465 13.2259C14.1525 14.017 13.3924 14.5767 12.5021 14.5767C11.6118 14.5767 10.8517 14.0128 10.5577 13.2259C10.4737 12.9986 10.4275 12.7546 10.4275 12.4979H10.4233C10.4233 12.2412 10.4695 11.9971 10.5535 11.7699C10.8475 10.9788 11.6076 10.4191 12.4979 10.4191C13.3882 10.4191 14.1483 10.983 14.4423 11.7699ZM12.4391 21.5284C7.6936 21.5284 3.8006 17.88 3.40585 13.2301H9.05006C9.38602 14.8291 10.8013 16.0326 12.4979 16.0326C14.1945 16.0326 15.6098 14.8291 15.9457 13.2301H21.4766C21.0776 17.8758 17.1846 21.5284 12.4391 21.5284ZM12.4979 1.73792C6.56812 1.73792 1.75962 6.55613 1.75962 12.4979C1.75962 18.4397 6.56812 23.2579 12.4979 23.2579C18.4277 23.2579 23.2404 18.4439 23.2404 12.4979C23.2404 6.55192 18.4319 1.73792 12.4979 1.73792Z" fill="black"/>
</svg>
